# xmcd
#
# Track frame offsets:
#	150
#	41543
#	65125
#	102648
#	122045
#	148080
#	164237
#	189499
#	215190
#	247962
#	301799
#
# Disc length: 4329 seconds
#
# Revision: 1
# Processed by: cddbd v1.5.2PL0 Copyright (c) Steve Scherf et al.
# Submitted via: audiograbber 1.83.01
#
DISCID=ad10e70b
DTITLE=Voodoo Lake - Flowers in the sand
DYEAR=2005
DGENRE=Blues
TTITLE0=Daddy
TTITLE1=Son of the witch
TTITLE2=Live with it
TTITLE3=Flowers in the sand
TTITLE4=Lady of the rocks
TTITLE5=Silas
TTITLE6=Fear another
TTITLE7=Sometimes
TTITLE8=Need to leave
TTITLE9=Damn light
TTITLE10=Rainbow smile
EXTD=
EXTT0=
EXTT1=
EXTT2=
EXTT3=
EXTT4=
EXTT5=
EXTT6=
EXTT7=
EXTT8=
EXTT9=
EXTT10=
PLAYORDER=
